<svg xmlns="http://www.w3.org/2000/svg" xmlns:xlink="http://www.w3.org/1999/xlink" width="500" zoomAndPan="magnify" viewBox="0 0 375 374.999991" height="500" preserveAspectRatio="xMidYMid meet" version="1.0"><defs><g/><clipPath id="fcb4a1b1fa"><path d="M 142 118 L 221 118 L 221 181 L 142 181 Z M 142 118 " clip-rule="nonzero"/></clipPath><clipPath id="3a0002d573"><path d="M 213.648438 111.710938 L 226.03125 171.1875 L 148.933594 187.238281 L 136.550781 127.761719 Z M 213.648438 111.710938 " clip-rule="nonzero"/></clipPath><clipPath id="e5643e30f6"><path d="M 213.648438 111.710938 L 226.03125 171.1875 L 148.933594 187.238281 L 136.550781 127.761719 Z M 213.648438 111.710938 " clip-rule="nonzero"/></clipPath><clipPath id="67c8ee197f"><path d="M 166 127 L 212 127 L 212 192 L 166 192 Z M 166 127 " clip-rule="nonzero"/></clipPath><clipPath id="8223b63adf"><path d="M 184.039062 125.660156 L 212.519531 135.09375 L 192.945312 194.1875 L 164.464844 184.753906 Z M 184.039062 125.660156 " clip-rule="nonzero"/></clipPath><clipPath id="afbca74a08"><path d="M 184.039062 125.660156 L 212.519531 135.09375 L 192.945312 194.1875 L 164.464844 184.753906 Z M 184.039062 125.660156 " clip-rule="nonzero"/></clipPath></defs><rect x="-37.5" width="450" fill="#ffffff" y="-37.499999" height="449.999989" fill-opacity="1"/><rect x="-37.5" width="450" fill="#ffffff" y="-37.499999" height="449.999989" fill-opacity="1"/><rect x="-37.5" width="450" fill="#ffffff" y="-37.499999" height="449.999989" fill-opacity="1"/><g clip-path="url(#fcb4a1b1fa)"><g clip-path="url(#3a0002d573)"><g clip-path="url(#e5643e30f6)"><path fill="#25242a" d="M 219.582031 140.753906 C 218.710938 137.5 217.066406 134.503906 215.382812 131.566406 C 212.539062 126.550781 209.019531 121.332031 203.53125 119.523438 C 199.410156 118.207031 194.914062 119.046875 190.734375 120.253906 C 186.558594 121.460938 182.402344 123.003906 178.074219 123.035156 C 174.675781 123.066406 171.417969 122.148438 168.035156 122.03125 C 164.847656 121.921875 161.664062 122.535156 158.578125 123.371094 C 155.949219 124.0625 153.273438 125.007812 151.152344 126.753906 C 149.210938 128.414062 147.835938 130.683594 146.757812 132.988281 C 144.4375 137.972656 143.125 143.371094 142.761719 148.863281 C 142.507812 152.785156 142.71875 156.851562 144.070312 160.535156 C 145.871094 165.433594 149.484375 169.46875 153.535156 172.785156 C 156.578125 175.246094 159.898438 177.410156 163.664062 178.65625 C 167.0625 179.789062 170.632812 180.109375 174.242188 180.132812 C 182.089844 180.191406 190.09375 178.667969 197.03125 175.046875 C 201.949219 172.476562 206.230469 168.972656 210.515625 165.46875 C 214.382812 162.292969 218.210938 158.015625 218.980469 155.386719 C 220.71875 149.707031 221.28125 148.910156 219.582031 140.753906 Z M 219.582031 140.753906 " fill-opacity="1" fill-rule="nonzero"/></g></g></g><g clip-path="url(#67c8ee197f)"><g clip-path="url(#8223b63adf)"><g clip-path="url(#afbca74a08)"><path fill="#f5efd7" d="M 186.433594 138.148438 C 187.078125 136.746094 187.804688 135.378906 188.507812 134.003906 C 188.839844 133.355469 189.171875 132.707031 189.480469 132.046875 C 189.859375 131.222656 190.28125 130.359375 190.445312 129.460938 C 190.511719 129.09375 190.761719 128.777344 191.167969 128.804688 C 191.503906 128.824219 191.882812 129.15625 191.820312 129.527344 C 191.511719 131.246094 190.636719 132.839844 189.851562 134.382812 C 189.144531 135.78125 188.394531 137.160156 187.742188 138.582031 C 187.589844 138.921875 187.257812 139.15625 186.871094 139.023438 C 186.546875 138.914062 186.277344 138.492188 186.433594 138.148438 Z M 191.992188 140.523438 C 193.648438 137.796875 195.027344 134.898438 196.082031 131.882812 C 196.378906 131.042969 195.074219 130.609375 194.777344 131.453125 C 193.757812 134.355469 192.445312 137.132812 190.847656 139.761719 C 190.386719 140.523438 191.527344 141.289062 191.992188 140.523438 Z M 199.671875 133.074219 C 198.183594 135.761719 196.773438 138.519531 195.132812 141.109375 C 193.859375 143.109375 192.320312 145.226562 190.066406 146.164062 C 189.289062 146.488281 188.4375 146.65625 187.59375 146.621094 C 186.398438 146.570312 185.511719 145.722656 184.804688 144.820312 C 183.230469 142.8125 183.546875 139.816406 183.964844 137.457031 C 184.546875 134.164062 185.871094 131.019531 187.460938 128.097656 C 187.882812 127.320312 186.742188 126.546875 186.316406 127.328125 C 184.734375 130.238281 183.410156 133.324219 182.746094 136.578125 C 182.214844 139.175781 181.769531 142.535156 183.210938 144.925781 C 183.714844 145.765625 184.410156 146.605469 185.238281 147.199219 C 183.410156 151.324219 181.632812 155.476562 179.640625 159.523438 C 178.257812 158.933594 176.761719 158.910156 175.554688 159.96875 C 175.007812 160.445312 174.710938 161.0625 174.421875 161.699219 C 172.609375 165.675781 170.800781 169.648438 168.988281 173.621094 C 168.234375 175.269531 167.488281 176.914062 166.738281 178.5625 C 166.441406 179.207031 166.195312 179.84375 166.21875 180.578125 C 166.25 181.449219 166.589844 182.316406 167.195312 182.949219 C 167.648438 183.417969 168.203125 183.691406 168.78125 183.957031 C 169.210938 184.15625 169.640625 184.347656 170.070312 184.546875 C 171.765625 185.265625 173.808594 184.5625 174.660156 182.894531 C 174.835938 182.550781 174.988281 182.195312 175.148438 181.839844 C 175.96875 180.046875 176.785156 178.246094 177.605469 176.449219 C 179.335938 172.65625 181.074219 168.871094 182.789062 165.074219 C 183.21875 164.128906 183.308594 163.105469 182.929688 162.121094 C 182.53125 161.09375 181.753906 160.542969 180.878906 160.097656 C 182.859375 156.066406 184.636719 151.9375 186.453125 147.832031 C 187.378906 148.121094 188.445312 148.03125 189.367188 147.835938 C 191.78125 147.320312 193.578125 145.558594 195.035156 143.65625 C 196.140625 142.214844 197.042969 140.628906 197.925781 139.046875 C 198.890625 137.308594 199.851562 135.574219 200.816406 133.839844 C 201.246094 133.066406 200.105469 132.296875 199.671875 133.074219 Z M 210.46875 140.867188 C 209.773438 142.566406 208.933594 144.21875 208.152344 145.886719 C 206.734375 148.914062 205.3125 151.941406 203.898438 154.964844 C 202.730469 157.453125 201.476562 159.910156 200.402344 162.4375 C 199.484375 164.597656 198.59375 166.773438 197.6875 168.945312 C 197.761719 169.050781 197.832031 169.15625 197.890625 169.28125 C 198.324219 170.171875 198.238281 171.140625 197.835938 172.019531 C 196.105469 175.8125 194.375 179.609375 192.648438 183.402344 C 191.804688 185.257812 190.957031 187.109375 190.113281 188.96875 C 189.949219 189.328125 189.789062 189.691406 189.621094 190.046875 C 188.921875 191.539062 187.257812 192.292969 185.707031 191.648438 C 185.285156 191.457031 184.867188 191.261719 184.445312 191.070312 C 183.964844 190.851562 183.425781 190.65625 183.011719 190.320312 C 182.320312 189.761719 181.910156 188.925781 181.894531 188.03125 C 181.882812 187.386719 182.117188 186.851562 182.375 186.285156 C 183.128906 184.632812 183.878906 182.988281 184.628906 181.335938 C 186.476562 177.28125 188.320312 173.230469 190.167969 169.175781 C 190.355469 168.769531 190.527344 168.304688 190.785156 167.941406 C 191.3125 167.21875 192.128906 166.761719 193.011719 166.699219 C 193.164062 166.6875 193.3125 166.695312 193.453125 166.710938 C 193.871094 165.730469 194.285156 164.753906 194.703125 163.777344 C 194.070312 163.503906 193.433594 163.226562 192.800781 162.957031 C 192.472656 162.816406 192.222656 162.453125 192.363281 162.082031 C 193.378906 159.449219 194.398438 156.816406 195.523438 154.226562 C 197.496094 149.691406 199.804688 145.246094 202.917969 141.382812 C 204.261719 139.71875 205.734375 137.96875 207.667969 136.980469 C 208.441406 136.582031 209.769531 136.007812 210.644531 136.335938 C 211.160156 136.523438 211.292969 136.964844 211.1875 137.34375 C 211.199219 137.367188 211.214844 137.390625 211.226562 137.414062 C 211.375 137.742188 211.273438 138.082031 211.210938 138.421875 C 211.054688 139.261719 210.792969 140.074219 210.46875 140.867188 Z M 209.78125 138.59375 C 209.832031 138.375 209.859375 138.144531 209.910156 137.925781 C 209.90625 137.949219 210.039062 138.132812 209.941406 137.941406 C 209.886719 137.839844 209.820312 137.746094 209.761719 137.652344 C 209.390625 137.726562 208.902344 137.933594 208.742188 138.003906 C 208.324219 138.175781 207.921875 138.390625 207.550781 138.644531 C 206.757812 139.183594 206.0625 139.867188 205.417969 140.570312 C 199.878906 146.589844 196.804688 154.386719 193.898438 161.925781 C 194.539062 162.203125 195.179688 162.480469 195.820312 162.757812 C 196.136719 162.894531 196.410156 163.265625 196.253906 163.628906 C 195.757812 164.792969 195.265625 165.949219 194.773438 167.113281 C 194.78125 167.117188 194.785156 167.117188 194.792969 167.125 C 195.390625 167.394531 196.035156 167.640625 196.605469 167.976562 C 196.984375 167.066406 197.367188 166.160156 197.746094 165.25 C 199.316406 161.488281 201.054688 157.8125 202.789062 154.117188 C 204.191406 151.128906 205.59375 148.132812 206.996094 145.140625 C 207.667969 143.710938 208.367188 142.289062 208.996094 140.839844 C 209.3125 140.105469 209.59375 139.363281 209.78125 138.59375 Z M 209.78125 138.59375 " fill-opacity="1" fill-rule="nonzero"/></g></g></g><g fill="#25242a" fill-opacity="1"><g transform="translate(84.5478, 230.739902)"><g><path d="M 32.925781 -30.453125 C 31.558594 -38.5 25.667969 -43.078125 17.515625 -42.445312 C 14.304688 -42.183594 11.625 -41.238281 9.097656 -39.5 L 8.625 -39.183594 L 8.308594 -39.605469 C 8.207031 -39.765625 8.101562 -39.921875 8.046875 -40.027344 C 7.890625 -40.238281 7.785156 -40.394531 7.679688 -40.5 C 6.941406 -41.183594 6.046875 -41.550781 5.207031 -41.550781 C 4.890625 -41.550781 4.574219 -41.5 4.3125 -41.394531 C 3.15625 -41.027344 2.367188 -40.078125 2.105469 -38.765625 C 1.894531 -37.921875 1.894531 -37.027344 1.945312 -36.132812 C 2 -32.609375 2.3125 -29.085938 2.628906 -25.613281 C 3 -21.933594 3.367188 -18.144531 3.417969 -14.359375 C 3.417969 -12.253906 3.261719 -10.097656 3.101562 -7.996094 C 3.050781 -6.941406 3 -5.839844 2.945312 -4.785156 C 2.839844 -3.101562 2.839844 -1.734375 4.050781 -1.105469 L 4.207031 -0.945312 C 4.734375 -0.316406 6.046875 0.210938 7.46875 -0.0507812 C 8.519531 -0.210938 9.941406 -0.839844 10.835938 -2.945312 C 11.257812 -3.890625 11.257812 -5.15625 11.308594 -6.3125 L 11.308594 -6.785156 C 11.359375 -7.941406 11.257812 -9.941406 11.203125 -11.257812 L 11.097656 -12.570312 L 11.730469 -12.570312 C 12.570312 -12.570312 13.414062 -12.570312 14.304688 -12.519531 C 15.988281 -12.414062 17.726562 -12.359375 19.09375 -12.570312 C 28.558594 -14.203125 34.398438 -21.722656 32.925781 -30.453125 Z M 21.300781 -23.878906 C 19.144531 -21.828125 16.464844 -20.882812 12.730469 -20.882812 C 12.359375 -20.882812 11.992188 -20.882812 11.570312 -20.933594 L 11.046875 -20.933594 L 11.046875 -21.511719 C 11.046875 -25.035156 11.78125 -27.929688 13.308594 -30.507812 C 14.675781 -32.769531 18.777344 -34.136719 21.089844 -33.082031 C 21.984375 -32.714844 22.828125 -31.769531 23.144531 -30.769531 C 24.035156 -28.296875 23.40625 -25.929688 21.300781 -23.878906 Z M 21.300781 -23.878906 "/></g></g></g><g fill="#25242a" fill-opacity="1"><g transform="translate(119.680473, 230.739902)"><g><path d="M 27.035156 -10.519531 C 26.246094 -14.148438 25.667969 -17.882812 24.878906 -21.566406 C 24.617188 -22.722656 24.300781 -24.246094 23.457031 -24.929688 C 20.933594 -26.878906 18.144531 -28.558594 14.621094 -27.980469 C 8.46875 -26.878906 2.472656 -20.144531 1.945312 -13.570312 C 1.472656 -7.519531 6.3125 -3.3125 12.308594 -4.734375 C 13.886719 -5.15625 15.359375 -6.046875 16.832031 -6.785156 C 17.355469 -7.046875 17.777344 -7.46875 18.304688 -7.835938 C 18.566406 -7.46875 18.777344 -7.257812 18.933594 -6.996094 C 20.671875 -4.367188 22.933594 -3.367188 25.035156 -4.261719 C 27.085938 -5.15625 27.71875 -7.363281 27.035156 -10.519531 Z M 11.78125 -12.359375 C 11.203125 -12.148438 10.363281 -12.097656 9.835938 -12.359375 C 9.519531 -12.519531 9.519531 -13.621094 9.730469 -14.148438 C 10.886719 -17.410156 12.730469 -20.039062 16.253906 -21.511719 C 16.882812 -17.460938 14.992188 -13.621094 11.78125 -12.359375 Z M 11.78125 -12.359375 "/></g></g></g><g fill="#25242a" fill-opacity="1"><g transform="translate(148.975228, 230.739902)"><g><path d="M 24.246094 -22.722656 C 21.300781 -26.667969 16.726562 -27.296875 12.730469 -24.457031 C 11.570312 -23.617188 10.519531 -22.617188 9.308594 -21.566406 C 9.097656 -21.984375 8.996094 -22.25 8.890625 -22.5625 C 8.414062 -24.195312 7.679688 -25.71875 5.679688 -25.667969 C 3.578125 -25.5625 2.945312 -23.828125 2.789062 -22.144531 C 2.417969 -17.304688 2.050781 -12.464844 1.945312 -7.625 C 1.839844 -4.945312 3.628906 -3.101562 5.945312 -2.839844 C 8.257812 -2.578125 10.257812 -4.050781 10.886719 -6.734375 C 11.730469 -10.46875 13.78125 -13.570312 16.09375 -16.515625 C 16.464844 -16.988281 16.988281 -17.304688 17.726562 -17.988281 C 17.988281 -16.621094 18.144531 -15.726562 18.25 -14.78125 C 18.621094 -12.308594 18.777344 -9.730469 19.410156 -7.257812 C 19.933594 -5.15625 21.722656 -4.101562 23.5625 -4.15625 C 25.246094 -4.261719 26.878906 -5.523438 27.191406 -7.625 C 28.035156 -12.992188 27.5625 -18.199219 24.246094 -22.722656 Z M 24.246094 -22.722656 "/></g></g></g><g fill="#25242a" fill-opacity="1"><g transform="translate(178.532958, 230.739902)"><g><path d="M 9.730469 -22.460938 C 9.679688 -23.933594 8.890625 -25.089844 7.3125 -25.300781 C 5.679688 -25.511719 4.472656 -24.5625 4.207031 -23.089844 C 3.3125 -17.988281 2.417969 -12.78125 1.945312 -7.625 C 1.683594 -4.890625 3.367188 -3.15625 5.257812 -3 C 7.207031 -2.839844 8.785156 -4.472656 9.308594 -7.257812 C 9.46875 -8.308594 9.574219 -9.414062 9.625 -10.46875 C 9.679688 -12.042969 9.835938 -20.039062 9.730469 -22.460938 Z M 5.839844 -29.824219 C 7.574219 -29.769531 9.152344 -31.347656 9.203125 -33.292969 C 9.203125 -35.082031 7.835938 -36.503906 6.046875 -36.449219 C 4.261719 -36.449219 2.789062 -35.03125 2.789062 -33.1875 C 2.789062 -31.347656 4.101562 -29.875 5.839844 -29.824219 Z M 5.839844 -29.824219 "/></g></g></g><g fill="#25242a" fill-opacity="1"><g transform="translate(190.313975, 230.739902)"><g><path d="M 31.714844 0.527344 C 31.558594 -0.261719 30.664062 -1.15625 29.875 -1.523438 C 28.875 -1.945312 27.613281 -1.894531 26.296875 -2.105469 C 26.246094 -2.472656 26.195312 -2.945312 26.140625 -3.472656 C 26.035156 -8.363281 25.878906 -13.253906 25.71875 -18.144531 C 25.667969 -20.144531 25.5625 -22.144531 25.40625 -24.089844 C 25.300781 -25.667969 24.5625 -26.984375 22.984375 -27.507812 C 21.355469 -28.035156 20.09375 -27.457031 19.039062 -26.140625 C 18.726562 -25.773438 17.882812 -25.5625 17.304688 -25.613281 C 9.203125 -26.824219 3.996094 -23.300781 2.261719 -15.410156 C 1.472656 -11.675781 1.945312 -8.207031 5.050781 -5.574219 C 8.257812 -2.839844 11.941406 -1.734375 16.09375 -3.472656 C 16.410156 -3.578125 16.777344 -3.628906 17.253906 -3.734375 C 17.199219 -2.734375 17.09375 -1.945312 17.042969 -1.15625 C 16.832031 1.839844 16.464844 4.890625 16.515625 7.890625 C 16.566406 9.992188 18.199219 11.414062 20.039062 11.675781 C 22.039062 11.992188 23.667969 11.152344 24.5625 9.414062 C 25.929688 6.574219 27.769531 4.3125 30.558594 2.789062 C 31.191406 2.417969 31.875 1.210938 31.714844 0.527344 Z M 14.359375 -11.625 C 13.675781 -11.152344 12.414062 -10.992188 11.519531 -11.257812 C 10.308594 -11.570312 10.308594 -12.730469 10.46875 -13.886719 C 11.097656 -17.671875 13.621094 -19.460938 17.882812 -18.882812 C 17.460938 -16.09375 16.726562 -13.414062 14.359375 -11.625 Z M 14.359375 -11.625 "/></g></g></g><g fill="#25242a" fill-opacity="1"><g transform="translate(220.345044, 230.739902)"><g><path d="M 25.773438 -8.835938 C 24.667969 -13.621094 23.667969 -18.410156 24.351562 -23.351562 C 24.40625 -23.722656 24.351562 -24.089844 24.351562 -24.457031 C 24.246094 -26.507812 22.984375 -27.929688 21.144531 -28.140625 C 19.25 -28.351562 17.671875 -27.296875 17.148438 -25.300781 C 16.359375 -22.40625 15.832031 -19.460938 15.042969 -16.621094 C 14.570312 -15.09375 13.9375 -13.570312 12.992188 -12.308594 C 11.886719 -10.730469 10.78125 -10.941406 10.203125 -12.78125 C 9.730469 -14.359375 9.414062 -15.988281 9.257812 -17.671875 C 9.046875 -19.722656 9.046875 -21.828125 8.941406 -23.933594 C 8.835938 -25.351562 8.414062 -26.5625 6.835938 -26.824219 C 5.363281 -27.085938 4.367188 -26.246094 3.890625 -24.984375 C 1.628906 -19.410156 1.105469 -13.726562 3.472656 -8.101562 C 5.574219 -3.207031 10.625 -1.578125 15.304688 -4.050781 C 16.621094 -4.734375 17.777344 -5.679688 19.09375 -6.574219 C 19.25 -6.417969 19.304688 -6.363281 19.410156 -6.257812 C 20.722656 -3.996094 22.25 -3.261719 23.984375 -3.945312 C 25.71875 -4.679688 26.351562 -6.46875 25.773438 -8.835938 Z M 25.773438 -8.835938 "/></g></g></g><g fill="#25242a" fill-opacity="1"><g transform="translate(248.324954, 230.739902)"><g><path d="M 22.667969 -25.457031 C 20.617188 -27.5625 18.09375 -28.929688 15.199219 -29.453125 C 10.992188 -30.242188 7.152344 -28.558594 4.785156 -25.035156 C 3 -22.300781 2.261719 -19.25 2 -16.042969 C 1.316406 -8.363281 6.628906 -1.945312 16.304688 -2.945312 C 17.671875 -3.050781 19.304688 -3.996094 20.300781 -4.996094 C 22.144531 -6.941406 21.511719 -9.257812 18.988281 -10.046875 C 17.253906 -10.625 15.359375 -10.675781 13.570312 -10.992188 C 12.625 -11.203125 11.730469 -11.519531 10.78125 -11.835938 C 14.042969 -12.414062 17.199219 -12.625 20.039062 -13.621094 C 25.457031 -15.515625 26.667969 -21.300781 22.667969 -25.457031 Z M 17.988281 -20.40625 C 15.621094 -20.144531 13.203125 -19.882812 10.570312 -19.617188 C 10.992188 -21.195312 11.675781 -22.40625 13.253906 -22.878906 C 15.042969 -23.40625 17.253906 -22.511719 18.621094 -20.671875 C 18.304688 -20.511719 18.144531 -20.40625 17.988281 -20.40625 Z M 17.988281 -20.40625 "/></g></g></g><g fill="#25242a" fill-opacity="1"><g transform="translate(275.352478, 230.739902)"><g/></g></g><g fill="#25242a" fill-opacity="1"><g transform="translate(186.320662, 256.159407)"><g><path d="M 8.832031 -5.273438 C 9.003906 -6.582031 9.539062 -10.003906 7.167969 -9.425781 C 5.628906 -9.050781 4.222656 -7.363281 3.386719 -6.117188 C 2.273438 -4.421875 1.5625 -2.554688 0.894531 -0.667969 C 0.40625 0.714844 2.460938 1.671875 2.953125 0.289062 C 3.210938 -0.4375 3.472656 -1.175781 3.761719 -1.898438 L 5.992188 -1.433594 C 5.925781 -0.832031 5.839844 -0.230469 5.757812 0.355469 C 5.546875 1.8125 7.792969 2.1875 7.988281 0.726562 C 8.273438 -1.273438 8.574219 -3.269531 8.832031 -5.273438 Z M 4.890625 -4.25 C 5.253906 -4.867188 5.695312 -5.46875 6.179688 -5.988281 C 6.351562 -6.175781 6.53125 -6.347656 6.710938 -6.5 C 6.675781 -6.199219 6.613281 -5.902344 6.585938 -5.644531 C 6.507812 -4.996094 6.417969 -4.351562 6.320312 -3.6875 C 5.800781 -3.792969 5.28125 -3.90625 4.757812 -4.011719 C 4.804688 -4.09375 4.847656 -4.164062 4.890625 -4.25 Z M 4.890625 -4.25 "/></g></g></g><g fill="#25242a" fill-opacity="1"><g transform="translate(195.166555, 257.636179)"><g><path d="M 9.769531 -7.597656 C 9.746094 -9.039062 7.484375 -9.304688 7.507812 -7.851562 C 7.53125 -6.167969 6.984375 -3.433594 5.125 -2.789062 C 3.121094 -2.09375 3.863281 -7.496094 4.023438 -8.394531 C 4.292969 -9.832031 2.027344 -10.070312 1.761719 -8.648438 C 1.296875 -6.117188 0.910156 -0.21875 4.953125 -0.453125 C 8.226562 -0.636719 9.8125 -4.84375 9.769531 -7.597656 Z M 9.769531 -7.597656 "/></g></g></g><g fill="#25242a" fill-opacity="1"><g transform="translate(204.944393, 258.673881)"><g/></g></g><g fill="#25242a" fill-opacity="1"><g transform="translate(209.688831, 259.04772)"><g><path d="M 7.179688 -10.335938 C 6.023438 -10.1875 4.878906 -10.042969 3.71875 -9.894531 C 2.621094 -9.746094 2.164062 -9.226562 2.011719 -8.140625 C 1.644531 -5.613281 1.265625 -3.089844 0.792969 -0.582031 C 0.519531 0.835938 2.6875 1.523438 2.957031 0.0898438 C 3.175781 -1.101562 3.394531 -2.296875 3.585938 -3.488281 C 4.46875 -3.644531 5.335938 -3.710938 6.234375 -3.699219 C 7.691406 -3.667969 7.761719 -5.945312 6.304688 -5.972656 C 5.511719 -5.980469 4.738281 -5.945312 3.960938 -5.847656 C 3.976562 -5.90625 3.980469 -5.984375 3.996094 -6.058594 C 4.054688 -6.511719 4.226562 -7.054688 4.207031 -7.511719 C 4.210938 -7.570312 4.210938 -7.617188 4.230469 -7.675781 C 4.394531 -7.6875 4.578125 -7.710938 4.609375 -7.726562 C 5.644531 -7.847656 6.683594 -7.980469 7.71875 -8.117188 C 9.167969 -8.300781 8.613281 -10.503906 7.179688 -10.335938 Z M 7.179688 -10.335938 "/></g></g></g><g fill="#25242a" fill-opacity="1"><g transform="translate(218.927972, 259.332453)"><g><path d="M 8.585938 -1.644531 C 7.726562 -2.761719 6.746094 -3.757812 5.632812 -4.609375 C 6.4375 -5.207031 7.101562 -6.027344 7.371094 -6.898438 C 7.90625 -8.640625 6.320312 -10.304688 4.558594 -10.1875 C 2.695312 -10.054688 1.507812 -8.296875 1.210938 -6.601562 C 0.824219 -4.40625 0.878906 -2.085938 0.761719 0.132812 C 0.675781 1.59375 2.953125 1.539062 3.039062 0.0820312 C 3.101562 -1.121094 3.164062 -2.320312 3.242188 -3.523438 C 4.554688 -2.703125 5.699219 -1.683594 6.65625 -0.445312 C 7.53125 0.703125 9.492188 -0.480469 8.585938 -1.644531 Z M 5.195312 -7.636719 C 5.261719 -7.394531 4.59375 -6.773438 4.417969 -6.601562 C 4.105469 -6.304688 3.804688 -6.085938 3.414062 -6.03125 C 3.453125 -6.289062 3.507812 -6.550781 3.605469 -6.796875 C 3.707031 -7.085938 4.960938 -8.664062 5.195312 -7.636719 Z M 5.195312 -7.636719 "/></g></g></g><g fill="#25242a" fill-opacity="1"><g transform="translate(228.678636, 259.050048)"><g><path d="M 0.839844 -9.425781 C 0.710938 -6.679688 0.660156 -3.921875 0.683594 -1.167969 C 0.6875 0.304688 2.960938 0.144531 2.957031 -1.316406 C 2.933594 -4.066406 2.984375 -6.824219 3.113281 -9.570312 C 3.171875 -11.035156 0.898438 -10.886719 0.839844 -9.425781 Z M 0.839844 -9.425781 "/></g></g></g><g fill="#25242a" fill-opacity="1"><g transform="translate(233.316014, 258.80299)"><g><path d="M 6.1875 -7.035156 C 5.089844 -6.886719 2.988281 -6.558594 3.789062 -4.886719 C 4.222656 -3.972656 5.382812 -4.09375 5.839844 -4.691406 C 5.914062 -4.699219 5.992188 -4.707031 6.050781 -4.714844 C 6.082031 -4.71875 6.113281 -4.71875 6.125 -4.722656 C 6.121094 -4.613281 6.132812 -4.523438 6.109375 -4.460938 C 6.054688 -4.257812 5.953125 -4.046875 5.820312 -3.878906 C 5.160156 -3.046875 3.332031 -3.28125 2.78125 -4.171875 C 1.621094 -6.046875 3.523438 -10.171875 5.976562 -9.605469 C 7.402344 -9.269531 7.777344 -11.503906 6.351562 -11.84375 C 0.683594 -13.183594 -2.65625 -2.300781 3.515625 -1.242188 C 4.792969 -1.023438 6.140625 -1.105469 7.132812 -1.972656 C 8.042969 -2.773438 8.519531 -4.027344 8.457031 -5.210938 C 8.351562 -6.621094 7.53125 -7.191406 6.1875 -7.035156 Z M 6.1875 -7.035156 "/></g></g></g><g fill="#25242a" fill-opacity="1"><g transform="translate(243.181727, 257.758693)"><g><path d="M 6.777344 -10.886719 C 5.21875 -12.707031 1.972656 -12.441406 0.632812 -10.546875 C -0.71875 -8.941406 -0.433594 -5.773438 0.300781 -4.09375 C 0.8125 -2.945312 1.8125 -1.816406 3.101562 -1.628906 C 4.445312 -1.417969 5.777344 -2.109375 6.648438 -3.097656 C 7.527344 -4.117188 7.953125 -5.464844 7.949219 -6.800781 C 7.933594 -8.121094 7.667969 -9.847656 6.777344 -10.886719 Z M 5 -4.613281 C 4.960938 -4.578125 4.933594 -4.542969 4.898438 -4.488281 C 4.484375 -4.007812 3.746094 -3.71875 3.171875 -4.023438 C 2.804688 -4.210938 2.589844 -4.589844 2.421875 -4.960938 C 2.167969 -5.582031 2.027344 -6.25 1.992188 -6.921875 C 1.972656 -7.535156 1.996094 -8.324219 2.261719 -8.875 C 2.503906 -9.359375 2.984375 -9.714844 3.519531 -9.816406 C 4.449219 -9.984375 5.148438 -9.453125 5.394531 -8.601562 C 5.789062 -7.3125 5.847656 -5.738281 5 -4.613281 Z M 5 -4.613281 "/></g></g></g></svg>